<svg width="51" height="50" viewBox="0 0 51 50" fill="none" xmlns="http://www.w3.org/2000/svg">
<path d="M22.2599 12.8571C22.2599 11.2792 23.5391 10 25.117 10H37.9742C39.5521 10 40.8313 11.2792 40.8313 12.8571V25.7143C40.8313 27.2922 39.5521 28.5714 37.9742 28.5714H25.117C23.5391 28.5714 22.2599 27.2922 22.2599 25.7143V12.8571Z" fill="#CB05FF"/>
<path fill-rule="evenodd" clip-rule="evenodd" d="M15.9742 5.71429C15.9742 2.55837 18.5325 0 21.6885 0H44.5456C47.7015 0 50.2599 2.55837 50.2599 5.71429V28.5714C50.2599 31.7273 47.7015 34.2857 44.5456 34.2857H21.6885C18.5325 34.2857 15.9742 31.7273 15.9742 28.5714V18.5714H5.97417C4.39622 18.5714 3.11703 19.8506 3.11703 21.4286V44.2857C3.11703 45.8637 4.39622 47.1429 5.97417 47.1429H28.8313C30.4093 47.1429 31.6885 45.8637 31.6885 44.2857V37.1429H34.5456V44.2857C34.5456 47.4416 31.9872 50 28.8313 50H5.97417C2.81826 50 0.259888 47.4416 0.259888 44.2857V21.4286C0.259888 18.2727 2.81826 15.7143 5.97417 15.7143H28.8313C31.9872 15.7143 34.5456 18.2727 34.5456 21.4286V31.4286H44.5456C46.1236 31.4286 47.4027 30.1494 47.4027 28.5714V5.71429C47.4027 4.13633 46.1236 2.85714 44.5456 2.85714H21.6885C20.1105 2.85714 18.8313 4.13633 18.8313 5.71429V12.8571H15.9742V5.71429ZM31.6885 28.6166V24.8775L25.1373 31.4286H28.3141L31.6885 28.6166ZM21.1478 31.3775L31.6374 20.8879C31.4182 19.7435 30.5163 18.8417 29.372 18.6225L18.8824 29.1121C19.1016 30.2565 20.0034 31.1583 21.1478 31.3775ZM18.8313 25.1226L25.3824 18.5714H22.2802L18.8313 22.0203V25.1226Z" fill="#D2EAFF"/>
<path d="M8.51643 44C7.96415 44 7.51643 43.5523 7.51643 43V34C7.51643 33.4477 7.96415 33 8.51643 33H11.0976C12.5426 33 13.595 33.2876 14.2547 33.8627C14.9248 34.4379 15.2599 35.2288 15.2599 36.2353C15.2599 36.831 15.1238 37.3908 14.8515 37.9146C14.5793 38.4384 14.1238 38.8595 13.485 39.1779C12.8567 39.4963 11.9981 39.6555 10.9091 39.6555H10.8882C10.3359 39.6555 9.88816 40.1032 9.88816 40.6555V43C9.88816 43.5523 9.44044 44 8.88816 44H8.51643ZM7.00709 42.3515C6.59442 42.3515 6.25989 42.017 6.25989 41.6043C6.25989 41.1917 6.59442 40.8571 7.00709 40.8571H11.5598C11.9725 40.8571 12.307 41.1917 12.307 41.6043C12.307 42.017 11.9725 42.3515 11.5598 42.3515H7.00709ZM7.21507 39.6555C6.68754 39.6555 6.25989 39.2278 6.25989 38.7003C6.25989 38.1727 6.68754 37.7451 7.21507 37.7451H9.9068C10.4343 37.7451 10.862 38.1727 10.862 38.7003C10.862 39.2278 10.4343 39.6555 9.9068 39.6555H7.21507ZM10.6735 37.7451C11.1238 37.7451 11.5112 37.6989 11.8358 37.6064C12.1604 37.5037 12.4117 37.3445 12.5897 37.1289C12.7677 36.9132 12.8567 36.641 12.8567 36.3123C12.8567 35.8399 12.7049 35.4907 12.4012 35.2647C12.0976 35.0285 11.6211 34.9104 10.9719 34.9104H10.8882C10.3359 34.9104 9.88816 35.3581 9.88816 35.9104V36.9598C9.88816 37.3935 10.2398 37.7451 10.6735 37.7451Z" fill="#D2EAFF"/>
</svg>
