<svg width="56" height="50" viewBox="0 0 56 50" fill="none" xmlns="http://www.w3.org/2000/svg">
<path d="M6.70569 17.1429V31.4286C6.70569 33.7955 8.62447 35.7143 10.9914 35.7143H28.1343C30.5012 35.7143 32.42 33.7955 32.42 31.4286V8.57142C32.42 6.99347 31.1408 5.71428 29.5628 5.71428C27.9849 5.71428 26.7057 6.99347 26.7057 8.57142V9.99999C26.7057 12.3669 24.7869 14.2857 22.42 14.2857H9.56283C7.98487 14.2857 6.70569 15.5649 6.70569 17.1429Z" fill="#327DFF"/>
<path fill-rule="evenodd" clip-rule="evenodd" d="M26.7057 2.85714C25.1277 2.85714 23.8485 4.13633 23.8485 5.71429C23.8485 8.8702 21.2902 11.4286 18.1343 11.4286H6.70568C5.12772 11.4286 3.84854 12.7078 3.84854 14.2857V35.7143C3.84854 37.2922 5.12772 38.5714 6.70568 38.5714H9.56282C10.3518 38.5714 10.9914 39.211 10.9914 40C10.9914 40.789 10.3518 41.4286 9.56282 41.4286H6.70568C3.54977 41.4286 0.991394 38.8702 0.991394 35.7143V14.2857C0.991394 11.1298 3.54977 8.57143 6.70568 8.57143H18.1343C19.7122 8.57143 20.9914 7.29224 20.9914 5.71429C20.9914 2.55837 23.5498 0 26.7057 0H38.8485C40.821 0 42.42 1.59898 42.42 3.57143V4.28571C42.42 5.07469 41.7804 5.71429 40.9914 5.71429C40.2024 5.71429 39.5628 5.07469 39.5628 4.28571V3.57143C39.5628 3.17694 39.243 2.85714 38.8485 2.85714H26.7057ZM40.9914 14.2857C41.7804 14.2857 42.42 14.9253 42.42 15.7143V35.7143C42.42 38.8702 39.8616 41.4286 36.7057 41.4286H20.9914C20.2024 41.4286 19.5628 40.789 19.5628 40C19.5628 39.211 20.2024 38.5714 20.9914 38.5714H36.7057C38.2836 38.5714 39.5628 37.2922 39.5628 35.7143V15.7143C39.5628 14.9253 40.2024 14.2857 40.9914 14.2857Z" fill="#D2EAFF"/>
<path fill-rule="evenodd" clip-rule="evenodd" d="M38.1342 11.4286C37.3452 11.4286 36.7057 12.0682 36.7057 12.8571V14.2857C36.7057 17.4416 34.1473 20 30.9914 20H19.5628C17.9848 20 16.7057 21.2792 16.7057 22.8571V44.2857C16.7057 45.8637 17.9848 47.1429 19.5628 47.1429H49.5628C51.1408 47.1429 52.4199 45.8637 52.4199 44.2857V14.2857C52.4199 12.7078 51.1408 11.4286 49.5628 11.4286H38.1342ZM33.8485 12.8571C33.8485 10.4902 35.7673 8.57143 38.1342 8.57143H49.5628C52.7187 8.57143 55.2771 11.1298 55.2771 14.2857V44.2857C55.2771 47.4416 52.7187 50 49.5628 50H19.5628C16.4069 50 13.8485 47.4416 13.8485 44.2857V22.8571C13.8485 19.7012 16.4069 17.1429 19.5628 17.1429H30.9914C32.5693 17.1429 33.8485 15.8637 33.8485 14.2857V12.8571Z" fill="#D2EAFF"/>
</svg>
