<svg width="58" height="50" viewBox="0 0 58 50" fill="none" xmlns="http://www.w3.org/2000/svg">
<path d="M32.9854 33.7499C32.9854 34.4403 33.5473 35.008 34.2322 34.9219C36.4247 34.6465 38.4775 33.6501 40.0565 32.071C41.9319 30.1956 42.9854 27.6521 42.9854 24.9999C42.9854 22.3478 41.9319 19.8042 40.0565 17.9289C38.4775 16.3498 36.4247 15.3534 34.2322 15.0779C33.5473 14.9919 32.9854 15.5596 32.9854 16.2499L32.9854 21.2499L30.9854 22.7499C30.6707 22.986 30.4854 23.3565 30.4854 23.7499V24.9999C30.4854 25.3934 30.6707 25.7639 30.9854 25.9999L32.9854 27.4999V33.7499Z" fill="#327DFF"/>
<path fill-rule="evenodd" clip-rule="evenodd" d="M13.6104 8.75C11.5394 8.75 9.86043 10.4289 9.86043 12.5C9.86043 12.8934 9.67519 13.2639 9.36043 13.5L9.2424 13.5885C8.77794 13.9369 8.1437 13.9941 7.61606 13.7303C5.81298 12.8287 3.59977 13.3712 2.43555 15.0344L0.978805 17.1154C-0.252589 18.8746 0.0940286 21.2877 1.77079 22.6291C2.14348 22.9272 2.36043 23.3786 2.36043 23.8559V26.1889C2.36043 26.6379 2.15634 27.0625 1.80575 27.343C0.106807 28.7021 -0.185006 31.174 1.15075 32.8914L2.40612 34.5055C3.6253 36.073 5.78139 36.5621 7.55756 35.674L7.62436 35.6406C8.14781 35.3789 8.77421 35.4353 9.2424 35.7865C9.63146 36.0783 9.86043 36.5362 9.86043 37.0225V37.0833C9.86043 39.3845 11.7259 41.25 14.0271 41.25H17.1565C19.3522 41.25 21.1104 39.4476 21.1104 37.276C21.1104 36.7386 21.4161 36.2447 21.8852 36.0101C22.2338 35.8358 22.6393 35.8146 23.0042 35.9514L23.7605 36.235L25.7573 32.0236C26.0584 31.3886 26.0041 30.6421 25.6143 30.0574L24.5786 28.5038C24.3596 28.1753 24.2427 27.7893 24.2427 27.3944V22.4612C24.2427 21.8537 24.5189 21.2791 24.9933 20.8995L25.4363 20.5451C26.1924 19.9402 26.4066 18.8806 25.9448 18.0295L23.6112 13.729L23.4083 13.816C22.8663 14.0482 22.2415 13.9733 21.7698 13.6195L21.6104 13.5C21.2957 13.2639 21.1104 12.8934 21.1104 12.5C21.1104 10.4289 19.4315 8.75 17.3604 8.75H13.6104ZM15.2427 31C17.2427 31 21.6104 29.8 21.6104 25C21.6104 19.5 17.2427 19 15.2427 19C13.576 18.8333 9.74268 19.8 9.74268 25C9.74268 30.2 13.576 31.1667 15.2427 31Z" fill="#327DFF"/>
<path fill-rule="evenodd" clip-rule="evenodd" d="M13.6104 11.25C12.9201 11.25 12.3604 11.8096 12.3604 12.5C12.3604 13.6803 11.8047 14.7918 10.8604 15.5L10.7424 15.5885C9.51293 16.5106 7.86425 16.6495 6.49803 15.9663C5.79056 15.6126 4.92905 15.8317 4.48363 16.468L3.02688 18.5491C2.55167 19.228 2.68543 20.1592 3.33252 20.6769C4.29825 21.4495 4.86043 22.6192 4.86043 23.8559V26.1889C4.86043 27.3973 4.31112 28.5402 3.36749 29.2951C2.73627 29.8001 2.62785 30.7185 3.12413 31.3566L4.3795 32.9706C4.86704 33.5975 5.72925 33.793 6.43953 33.4379L6.50633 33.4045C7.87674 32.7193 9.51666 32.8672 10.7424 33.7865C11.761 34.5504 12.3604 35.7493 12.3604 37.0225V37.0833C12.3604 38.0038 13.1066 38.75 14.0271 38.75H17.1565C17.9475 38.75 18.6104 38.091 18.6104 37.276C18.6104 35.8046 19.4396 34.4379 20.7672 33.7741C21.7376 33.2889 22.8662 33.2296 23.882 33.6106L24.6383 33.8942C25.8362 34.3434 27.18 33.8157 27.7522 32.6714L28.245 31.6858C28.6361 30.9036 28.4276 29.9545 27.7447 29.4082C26.7118 28.5818 26.1104 27.3307 26.1104 26.0079V23.92C26.1104 22.6427 26.691 21.4348 27.6884 20.6369C28.3545 20.104 28.524 19.1606 28.0851 18.4291L27.1367 16.8484C26.6144 15.9778 25.5292 15.6269 24.596 16.0269L24.3931 16.1138C23.0292 16.6983 21.4569 16.5099 20.2698 15.6195L20.1104 15.5C19.1662 14.7918 18.6104 13.6803 18.6104 12.5C18.6104 11.8096 18.0508 11.25 17.3604 11.25H13.6104ZM9.86043 12.5C9.86043 10.4289 11.5394 8.75 13.6104 8.75H17.3604C19.4315 8.75 21.1104 10.4289 21.1104 12.5C21.1104 12.8934 21.2957 13.2639 21.6104 13.5L21.7698 13.6195C22.2416 13.9733 22.8663 14.0482 23.4083 13.816L23.6112 13.729C25.6935 12.8366 28.1149 13.6196 29.2805 15.5622L30.2289 17.1428C31.3116 18.9474 30.8934 21.2744 29.2501 22.589C28.8458 22.9125 28.6104 23.4022 28.6104 23.92V26.0079C28.6104 26.5713 28.8665 27.1041 29.3065 27.4561C30.9099 28.7388 31.3993 30.9673 30.481 32.8039L29.9883 33.7894C28.8439 36.0781 26.1564 37.1335 23.7605 36.235L23.0042 35.9514C22.6393 35.8146 22.2338 35.8358 21.8852 36.0101C21.4161 36.2447 21.1104 36.7386 21.1104 37.276C21.1104 39.4476 19.3522 41.25 17.1565 41.25H14.0271C11.7259 41.25 9.86043 39.3845 9.86043 37.0833V37.0225C9.86043 36.5362 9.63146 36.0783 9.2424 35.7865C8.77421 35.4353 8.14781 35.3789 7.62436 35.6406L7.55756 35.674C5.78139 36.5621 3.6253 36.073 2.40612 34.5055L1.15075 32.8914C-0.185006 31.174 0.106807 28.7021 1.80575 27.343C2.15634 27.0625 2.36043 26.6379 2.36043 26.1889V23.8559C2.36043 23.3786 2.14348 22.9272 1.77079 22.6291C0.0940287 21.2877 -0.252589 18.8746 0.978805 17.1154L2.43555 15.0344C3.59977 13.3712 5.81298 12.8287 7.61606 13.7303C8.1437 13.9941 8.77794 13.9369 9.2424 13.5885L9.36043 13.5C9.67519 13.2639 9.86043 12.8934 9.86043 12.5Z" fill="#D2EAFF"/>
<path d="M13.975 20.3802C13.7365 19.6508 12.94 19.2406 12.2812 19.634C11.6541 20.0084 11.0944 20.4918 10.63 21.0647C9.87222 21.9997 9.40049 23.1335 9.27147 24.3301C9.14245 25.5266 9.36162 26.7349 9.90266 27.8099C10.4437 28.8849 11.2836 29.7808 12.3215 30.3901C13.3593 30.9993 14.551 31.2959 15.7534 31.2444C16.9557 31.1928 18.1176 30.7951 19.0995 30.0992C20.0813 29.4033 20.8414 28.4388 21.2884 27.3214C21.5623 26.6366 21.7115 25.9123 21.7328 25.1822C21.7552 24.4152 21.0087 23.9197 20.2556 24.067C19.5025 24.2143 19.0402 24.9629 18.8824 25.7139C18.8412 25.9095 18.7831 26.1021 18.7083 26.2893C18.46 26.9098 18.0379 27.4455 17.4926 27.832C16.9473 28.2185 16.302 28.4394 15.6342 28.468C14.9665 28.4967 14.3047 28.3319 13.7283 27.9936C13.1518 27.6552 12.6854 27.1576 12.3849 26.5606C12.0844 25.9636 11.9627 25.2925 12.0344 24.628C12.106 23.9635 12.368 23.3337 12.7888 22.8145C12.9158 22.6579 13.0556 22.5133 13.2064 22.382C13.7852 21.8782 14.2135 21.1096 13.975 20.3802Z" fill="#D2EAFF"/>
<path d="M19.4082 22.1526C20.0293 21.7018 20.1861 20.81 19.6095 20.3037C19.0749 19.8342 18.4637 19.4593 17.8029 19.1954C17.0902 18.9108 16.3663 19.4548 16.2459 20.2127C16.1278 20.9562 16.6588 21.6475 17.3004 22.0411C17.9421 22.4348 18.799 22.5948 19.4082 22.1526Z" fill="#D2EAFF"/>
<path fill-rule="evenodd" clip-rule="evenodd" d="M29.8083 2.5C28.4276 2.5 27.3083 3.61929 27.3083 5V7.1875H24.8083V5C24.8083 2.23858 27.0469 0 29.8083 0H36.1625C38.9239 0 41.1625 2.23858 41.1625 5V5.3125C41.1625 6.09939 41.533 6.84036 42.1625 7.3125L42.8864 7.85542C43.6018 8.39196 44.5493 8.50554 45.3712 8.15328L47.2968 7.328C49.595 6.34306 52.2675 7.20721 53.5539 9.35125L56.1211 13.6299C57.4087 15.7759 56.9114 18.5434 54.9571 20.1068L53.9758 20.8918C53.3827 21.3663 53.0375 22.0846 53.0375 22.844V27.156C53.0375 27.9154 53.3827 28.6337 53.9758 29.1082L55.149 30.0468C56.9901 31.5196 57.5521 34.0784 56.4977 36.1872L54.4153 40.3519C53.271 42.6406 50.5834 43.696 48.1876 42.7975L44.9631 41.5883C44.3122 41.3442 43.589 41.3822 42.9672 41.6931L42.5445 41.9045C41.6975 42.328 41.1625 43.1936 41.1625 44.1405V45C41.1625 47.7614 38.9239 50 36.1625 50H29.8083C27.0469 50 24.8083 47.7614 24.8083 45V41.8229H27.3083V45C27.3083 46.3807 28.4276 47.5 29.8083 47.5H36.1625C37.5432 47.5 38.6625 46.3807 38.6625 45V44.1405C38.6625 42.2467 39.7325 40.5154 41.4264 39.6684L41.8492 39.457C43.0928 38.8352 44.5391 38.7593 45.8409 39.2475L49.0654 40.4567C50.2633 40.9059 51.6071 40.3782 52.1793 39.2339L54.2616 35.0692C54.7888 34.0148 54.5078 32.7354 53.5873 31.999L52.414 31.0603C51.228 30.1115 50.5375 28.6749 50.5375 27.156V22.844C50.5375 21.3251 51.228 19.8885 52.414 18.9397L53.3954 18.1546C54.3725 17.3729 54.6212 15.9892 53.9774 14.9162L51.4102 10.6375C50.767 9.56547 49.4307 9.13339 48.2816 9.62586L46.356 10.4511C44.7121 11.1557 42.8172 10.9285 41.3864 9.85542L40.6625 9.3125C39.4035 8.36823 38.6625 6.88629 38.6625 5.3125V5C38.6625 3.61929 37.5432 2.5 36.1625 2.5H29.8083Z" fill="#D2EAFF"/>
<path d="M32.9854 33.6869C32.9854 34.4122 33.5759 35.009 34.295 34.914C35.1581 34.8 36.0045 34.5735 36.8123 34.2389C38.0255 33.7364 39.1279 32.9998 40.0565 32.0712C40.9851 31.1426 41.7217 30.0402 42.2242 28.827C42.7268 27.6137 42.9854 26.3134 42.9854 25.0002C42.9854 23.6869 42.7268 22.3866 42.2242 21.1733C41.7217 19.9601 40.9851 18.8577 40.0565 17.9291C39.1279 17.0005 38.0255 16.2639 36.8123 15.7614C36.0045 15.4268 35.1581 15.2003 34.295 15.0863C33.5759 14.9913 32.9854 15.5881 32.9854 16.3134C32.9854 17.0388 33.578 17.6149 34.2918 17.7434C34.8101 17.8367 35.3182 17.9855 35.8071 18.188C36.7017 18.5586 37.5146 19.1017 38.1992 19.7864C38.8839 20.471 39.427 21.2839 39.7976 22.1785C40.1681 23.0731 40.3589 24.0319 40.3589 25.0002C40.3589 25.9684 40.1681 26.9273 39.7976 27.8218C39.427 28.7164 38.8839 29.5293 38.1992 30.2139C37.5146 30.8986 36.7017 31.4418 35.8071 31.8123C35.3182 32.0148 34.8101 32.1636 34.2918 32.2569C33.578 32.3854 32.9854 32.9615 32.9854 33.6869Z" fill="#D2EAFF"/>
</svg>
