<svg width="65" height="42" viewBox="0 0 65 42" fill="none" xmlns="http://www.w3.org/2000/svg">
<path fill-rule="evenodd" clip-rule="evenodd" d="M39.8818 33.2377C39.2267 33.8449 38.5207 34.3978 37.7709 34.8895C32.5332 32.2791 28.5085 28.5 28.5085 20.5C28.5085 14.1 33.6262 8.96386 36.185 7.19579C38.1136 8.16526 39.6236 9.37095 41.0085 11C40.6101 11.2859 39.5085 12.7 39.5085 15.5H36.0085C35.3419 15.5 34.0085 16.1 34.0085 18.5C34.0085 22 38.0085 21.5 39.0085 21.5C38.0085 21.6667 34.0085 21.3465 34.0085 24.5C34.0085 27 35.5085 27.5 37.0085 27.5H38.5085C37.9241 29.1585 37.3804 32.6279 39.8818 33.2377ZM13.0085 21.5C13.0085 30.0896 19.7772 37.0983 28.2718 37.4833C25.8507 35.4889 21.0085 29.3 21.0085 20.5C21.0085 9.5 27.5085 6 29.0085 5.5C20.172 5.5 13.0085 12.6634 13.0085 21.5Z" fill="#CB05FF"/>
<path fill-rule="evenodd" clip-rule="evenodd" d="M41.0141 31.4765C40.4649 31.4183 40.0668 30.9259 40.125 30.3767L41.9143 13.4944C41.9725 12.9452 42.4649 12.5472 43.0141 12.6054C43.5633 12.6636 43.9613 13.156 43.9031 13.7052L42.1139 30.5874C42.0557 31.1367 41.5633 31.5347 41.0141 31.4765Z" fill="#D2EAFF"/>
<path fill-rule="evenodd" clip-rule="evenodd" d="M47.0141 31.4765C46.4649 31.4183 46.0668 30.9259 46.125 30.3767L47.9143 13.4944C47.9725 12.9452 48.4649 12.5472 49.0141 12.6054C49.5633 12.6636 49.9613 13.156 49.9031 13.7052L48.1139 30.5874C48.0557 31.1367 47.5633 31.5347 47.0141 31.4765Z" fill="#D2EAFF"/>
<path fill-rule="evenodd" clip-rule="evenodd" d="M36.0085 18.7107C36.0085 18.1584 36.4563 17.7107 37.0085 17.7107H53.0085C53.5608 17.7107 54.0085 18.1584 54.0085 18.7107C54.0085 19.263 53.5608 19.7107 53.0085 19.7107H37.0085C36.4563 19.7107 36.0085 19.263 36.0085 18.7107Z" fill="#D2EAFF"/>
<path fill-rule="evenodd" clip-rule="evenodd" d="M36.0085 24.7107C36.0085 24.1584 36.4563 23.7107 37.0085 23.7107H52.0085C52.5608 23.7107 53.0085 24.1584 53.0085 24.7107C53.0085 25.263 52.5608 25.7107 52.0085 25.7107H37.0085C36.4563 25.7107 36.0085 25.263 36.0085 24.7107Z" fill="#D2EAFF"/>
<path d="M35.7382 3.90763C35.3441 3.04071 35.7256 2.01098 36.6225 1.69108C40.7541 0.217553 45.2663 0.103393 49.4908 1.39228C54.2671 2.84951 58.3472 6.00001 60.9653 10.2523C63.5833 14.5047 64.5592 19.5664 63.7098 24.4873C62.8603 29.4081 60.2439 33.8497 56.3517 36.9782C52.4595 40.1067 47.5593 41.707 42.5709 41.4785C37.5824 41.2501 32.8489 39.2088 29.2589 35.7377C25.669 32.2666 23.4694 27.6045 23.0732 22.6266C22.7227 18.2237 23.8044 13.8416 26.1317 10.1235C26.637 9.3163 27.7247 9.16513 28.4866 9.73642V9.73642C29.2485 10.3077 29.3946 11.3847 28.9031 12.2004C27.0722 15.2392 26.2271 18.7879 26.5109 22.3529C26.8404 26.4934 28.67 30.3713 31.6561 33.2584C34.6421 36.1456 38.5793 37.8436 42.7286 38.0336C46.8778 38.2236 50.9538 36.8925 54.1912 34.2903C57.4286 31.6881 59.6049 27.9937 60.3114 23.9006C61.018 19.8076 60.2063 15.5973 58.0287 12.0604C55.851 8.52336 52.4572 5.90285 48.4844 4.69076C45.0638 3.64712 41.4164 3.70943 38.055 4.84418C37.1527 5.14877 36.1323 4.77455 35.7382 3.90763V3.90763Z" fill="#D2EAFF"/>
<path d="M28.36 38.0553C28.7582 38.9203 28.3817 39.9518 27.4862 40.276C24.2972 41.4304 20.8622 41.7786 17.4899 41.2765C13.5474 40.6896 9.8616 38.9661 6.88348 36.3169C3.90535 33.6677 1.76412 30.2078 0.721834 26.3606C-0.320449 22.5134 -0.218571 18.4458 1.015 14.6556C2.24857 10.8654 4.56033 7.51699 7.66734 5.02022C10.7743 2.52345 14.5418 0.98661 18.5087 0.597777C22.4756 0.208944 26.4698 0.984987 30.0025 2.83093C33.0243 4.40994 35.5963 6.71319 37.495 9.52348C38.0281 10.3126 37.7254 11.3681 36.8943 11.833V11.833C36.0633 12.298 35.0195 11.995 34.4731 11.2151C32.9111 8.98589 30.8327 7.15574 28.4054 5.88739C25.467 4.35198 22.1447 3.70649 18.8451 4.02991C15.5456 4.35333 12.4119 5.63164 9.82753 7.70839C7.24319 9.78515 5.32033 12.5703 4.29427 15.7229C3.26821 18.8755 3.18348 22.2588 4.05042 25.4588C4.91737 28.6588 6.6984 31.5367 9.17553 33.7402C11.6527 35.9438 14.7185 37.3773 17.9977 37.8655C20.7065 38.2688 23.464 38.0125 26.0388 37.1297C26.9397 36.8208 27.9618 37.1902 28.36 38.0553V38.0553Z" fill="#D2EAFF"/>
</svg>
