<svg width="1920" height="332" viewBox="0 0 1920 332" fill="none" xmlns="http://www.w3.org/2000/svg">
<g opacity="0.3" filter="url(#filter0_f_353_217)">
<path fill-rule="evenodd" clip-rule="evenodd" d="M1714.24 125.765L1714.23 125.755C1694.8 104.269 1669.45 93.5007 1637.99 93.5007C1606.22 93.5007 1580.11 104.131 1559.49 125.354C1539.15 146.603 1528.96 172.784 1528.96 204.028C1528.96 237.363 1539.6 264.094 1560.77 284.423C1581.97 304.782 1608.84 315 1641.54 315C1670.79 315 1695.01 308.837 1714.31 296.643C1722.07 291.736 1723.38 281.163 1717.95 273.196C1714.55 268.213 1709.13 265.282 1702.96 264.205C1696.78 263.126 1689.97 263.938 1684.07 266.32C1682.45 266.973 1680.78 267.595 1679.06 268.185C1667.94 272.097 1657.5 274.078 1647.76 274.078C1629.92 274.078 1615.21 269.222 1603.82 259.357C1599.34 255.475 1596.98 251.003 1596.52 246.408C1596.07 241.837 1597.51 237.373 1600.19 233.513C1605.52 225.832 1615.92 220.264 1627.54 220.264H1732.95C1738.77 220.264 1743.47 215.574 1743.47 209.81C1743.47 174.919 1733.67 146.97 1714.24 125.765ZM1678.41 266.296C1680.1 265.716 1681.74 265.106 1683.32 264.465C1695.77 259.438 1712.06 261.009 1719.6 272.07C1725.54 280.768 1724.29 292.699 1715.38 298.333C1695.68 310.778 1671.07 317 1641.54 317C1608.38 317 1581 306.622 1559.38 285.866C1537.77 265.11 1526.96 237.831 1526.96 204.028C1526.96 172.301 1537.33 145.615 1558.05 123.969C1579.07 102.324 1605.72 91.5007 1637.99 91.5007C1669.97 91.5007 1695.87 102.472 1715.71 124.414C1735.55 146.059 1745.47 174.525 1745.47 209.81C1745.47 216.688 1739.86 222.264 1732.95 222.264H1627.54C1605.49 222.264 1588.5 243.443 1605.13 257.845C1616.08 267.334 1630.29 272.078 1647.76 272.078C1657.24 272.078 1667.45 270.151 1678.41 266.296ZM81.5997 174.574L81.6007 174.573C92.9506 163.848 107.494 158.54 125.055 158.54C135.071 158.54 143.99 160.264 151.768 163.768C157.813 166.492 164.574 168.451 171.011 168.695C177.435 168.938 183.412 167.475 188.127 163.503C192.616 159.721 195.178 154.448 195.459 149.341C195.738 144.275 193.785 139.374 189.195 136.077C172.188 123.861 149.977 117.667 122.398 117.667C89.7258 117.667 63.0549 126.939 42.2178 145.36C21.4022 163.761 11 187.299 11 216.135C11 245.241 21.4065 268.909 42.2178 287.307C63.0549 305.728 89.7258 315 122.398 315C149.905 315 172.072 308.766 189.061 296.47C193.701 293.113 195.654 288.139 195.341 283.008C195.026 277.836 192.397 272.508 187.824 268.705C178.433 260.895 164.132 262.875 152.136 268.525C144.171 272.277 135.129 274.127 125.055 274.127C107.494 274.127 92.9506 268.818 81.6007 258.093L81.5907 258.084L81.5809 258.074C70.5118 247.324 65.0277 233.279 65.0277 216.135C65.0277 198.991 70.5122 185.066 81.5997 174.574ZM461.277 257.588L461.269 257.579C451.164 246.324 446.139 232.465 446.139 216.135C446.139 200.064 451.168 186.465 461.278 175.475C471.462 164.138 485.325 158.54 502.624 158.54C519.917 158.54 533.777 164.135 543.96 175.465C554.366 186.45 559.551 200.052 559.551 216.135C559.551 232.482 554.367 246.348 543.958 257.601C533.77 268.67 519.91 274.127 502.624 274.127C485.336 274.127 471.474 268.669 461.285 257.597L461.277 257.588ZM542.49 256.243C552.53 245.388 557.551 232.019 557.551 216.135C557.551 200.515 552.53 187.411 542.49 176.821C532.745 165.967 519.456 160.54 502.624 160.54C485.791 160.54 472.502 165.967 462.757 176.821C453.012 187.411 448.139 200.515 448.139 216.135C448.139 232.019 453.012 245.388 462.757 256.243C472.502 266.832 485.791 272.127 502.624 272.127C519.456 272.127 532.745 266.832 542.49 256.243ZM704.483 170.666C698.513 167.463 695.528 163.531 695.528 158.872C695.528 152.756 698.513 147.806 704.483 144.02C710.453 139.943 718.271 137.905 727.936 137.905C740.16 137.905 751.674 140.234 762.477 144.894C763.994 145.531 765.468 146.191 766.901 146.872C779.035 152.645 795.681 150.542 802.337 138.912C807.145 130.51 805.248 119.723 797.008 114.598C776.568 101.888 753.402 95.5333 727.51 95.5333C701.356 95.5333 680.745 101.94 665.679 114.753C650.612 127.567 643.078 143.292 643.078 161.93C643.078 175.034 646.063 186.1 652.033 195.128C658.287 203.864 665.821 210.271 674.633 214.348C683.73 218.425 693.538 221.919 704.057 224.831C714.859 227.744 724.667 229.928 733.48 231.384C742.577 232.84 750.11 235.315 756.08 238.81C762.334 242.013 765.461 246.235 765.461 251.477C765.461 258.466 762.477 263.999 756.507 268.076C750.821 272.153 742.292 274.192 730.921 274.192C718.697 274.192 705.762 271.28 692.117 265.455C688.737 264.013 685.532 262.517 682.501 260.967C669.847 254.497 652.743 256.909 645.42 269.047C640.066 277.922 641.518 289.517 650.203 295.217C658.058 300.373 666.913 304.722 676.766 308.264C693.254 314.088 710.453 317 728.363 317C756.222 317 777.97 310.739 793.605 298.217C809.525 285.404 817.485 269.096 817.485 249.293C817.485 235.897 814.5 224.54 808.53 215.221C802.56 205.903 795.027 199.205 785.93 195.128C776.833 190.76 767.025 187.119 756.507 184.207C745.988 181.004 736.18 178.674 727.083 177.218C717.986 175.762 710.453 173.578 704.483 170.666ZM792.355 296.656C807.818 284.208 815.485 268.466 815.485 249.293C815.485 236.199 812.57 225.235 806.846 216.3C801.062 207.272 793.815 200.853 785.112 196.953L785.088 196.942L785.064 196.931C776.082 192.618 766.386 189.018 755.973 186.135L755.948 186.128L755.924 186.121C745.477 182.939 735.759 180.632 726.767 179.193C717.545 177.717 709.807 175.488 703.606 172.464L703.571 172.447L703.537 172.428C697.247 169.053 693.528 164.579 693.528 158.872C693.528 151.965 696.959 146.433 703.383 142.349C709.777 137.993 718.016 135.905 727.936 135.905C740.418 135.905 752.199 138.284 763.259 143.053C764.801 143.701 766.301 144.372 767.76 145.066C773.444 147.77 780.206 148.631 786.294 147.454C792.37 146.28 797.625 143.118 800.601 137.919C804.958 130.305 803.142 120.768 795.952 116.297C775.853 103.799 753.058 97.5333 727.51 97.5333C701.676 97.5333 681.577 103.858 666.974 116.277C652.323 128.737 645.078 143.918 645.078 161.93C645.078 174.71 647.983 185.362 653.681 193.994C659.749 202.46 667.011 208.616 675.463 212.528C684.454 216.557 694.16 220.016 704.583 222.902C715.333 225.8 725.071 227.967 733.801 229.41C743.04 230.889 750.809 233.417 757.042 237.055C763.669 240.464 767.461 245.244 767.461 251.477C767.461 259.146 764.134 265.282 757.653 269.715C751.475 274.136 742.46 276.192 730.921 276.192C718.376 276.192 705.174 273.203 691.332 267.295C687.913 265.836 684.666 264.32 681.591 262.748C669.578 256.606 653.758 259.098 647.133 270.08C642.216 278.231 643.694 288.553 651.3 293.545C659.008 298.604 667.716 302.885 677.434 306.379C693.703 312.125 710.675 315 728.363 315C755.943 315 777.19 308.801 792.355 296.656ZM907.7 170.666C901.73 167.463 898.745 163.531 898.745 158.872C898.745 152.756 901.73 147.806 907.7 144.02C913.67 139.943 921.488 137.905 931.153 137.905C943.378 137.905 954.891 140.234 965.694 144.894C967.211 145.531 968.686 146.191 970.118 146.872C982.252 152.645 998.898 150.542 1005.55 138.912C1010.36 130.51 1008.47 119.723 1000.23 114.598C979.785 101.888 956.619 95.5333 930.727 95.5333C904.573 95.5333 883.963 101.94 868.896 114.753C853.829 127.567 846.295 143.292 846.295 161.93C846.295 175.034 849.28 186.1 855.25 195.128C861.504 203.864 869.038 210.271 877.851 214.348C886.948 218.425 896.755 221.919 907.274 224.831C918.076 227.744 927.884 229.928 936.697 231.384C945.794 232.84 953.327 235.315 959.297 238.81C965.552 242.013 968.679 246.235 968.679 251.477C968.679 258.466 965.694 263.999 959.724 268.076C954.038 272.153 945.51 274.192 934.138 274.192C921.914 274.192 908.979 271.28 895.334 265.455C891.954 264.013 888.749 262.517 885.718 260.967C873.064 254.497 855.96 256.909 848.637 269.047C843.283 277.922 844.736 289.517 853.42 295.217C861.276 300.373 870.13 304.722 879.983 308.264C896.471 314.088 913.67 317 931.58 317C959.439 317 981.187 310.739 996.823 298.217C1012.74 285.404 1020.7 269.096 1020.7 249.293C1020.7 235.897 1017.72 224.54 1011.75 215.221C1005.78 205.903 998.244 199.205 989.147 195.128C980.05 190.76 970.242 187.119 959.724 184.207C949.205 181.004 939.398 178.674 930.301 177.218C921.204 175.762 913.67 173.578 907.7 170.666ZM995.572 296.656C1011.04 284.208 1018.7 268.466 1018.7 249.293C1018.7 236.199 1015.79 225.235 1010.06 216.3C1004.28 207.272 997.032 200.853 988.329 196.953L988.305 196.942L988.281 196.931C979.299 192.618 969.604 189.018 959.19 186.135L959.165 186.128L959.141 186.121C948.694 182.939 938.976 180.632 929.984 179.193C920.762 177.717 913.024 175.488 906.823 172.464L906.789 172.447L906.755 172.428C900.464 169.053 896.745 164.579 896.745 158.872C896.745 151.965 900.176 146.433 906.6 142.35C912.993 137.994 921.233 135.905 931.153 135.905C943.635 135.905 955.416 138.284 966.476 143.053C968.018 143.701 969.518 144.372 970.977 145.066C976.661 147.77 983.423 148.631 989.511 147.454C995.587 146.28 1000.84 143.118 1003.82 137.919C1008.17 130.305 1006.36 120.768 999.169 116.297C979.07 103.799 956.275 97.5333 930.727 97.5333C904.893 97.5333 884.794 103.858 870.191 116.277C855.54 128.737 848.295 143.918 848.295 161.93C848.295 174.71 851.2 185.362 856.898 193.994C862.966 202.46 870.228 208.616 878.68 212.528C887.672 216.557 897.377 220.016 907.801 222.902C918.549 225.799 928.286 227.967 937.016 229.409C946.256 230.889 954.026 233.417 960.259 237.055C966.886 240.464 970.679 245.244 970.679 251.477C970.679 259.146 967.351 265.282 960.87 269.715C954.692 274.136 945.677 276.192 934.138 276.192C921.593 276.192 908.391 273.203 894.549 267.295C891.13 265.836 887.883 264.32 884.808 262.748C872.795 256.606 856.975 259.098 850.35 270.08C845.433 278.231 846.911 288.553 854.517 293.545C862.226 298.605 870.935 302.886 880.655 306.38C896.922 312.125 913.894 315 931.58 315C959.16 315 980.408 308.801 995.572 296.656ZM1209.67 309.663H1231.93C1246.41 309.663 1258.13 297.986 1258.13 283.602V172.894C1258.13 144.541 1249.54 124.497 1232.75 112.241C1215.71 99.802 1193.65 93.5007 1166.42 93.5007C1135.98 93.5007 1109.58 101.21 1087.14 116.568C1079.99 121.465 1078.33 131.191 1082.73 138.997C1088.69 149.563 1103.33 151.904 1114.72 145.942C1127.69 139.15 1141.68 135.757 1156.65 135.757C1171.16 135.757 1183.03 139.089 1192.06 145.949C1201.15 152.859 1205.73 162.2 1205.73 173.784C1205.73 179.754 1201.51 184.241 1196.49 186.598C1191.47 188.958 1185.11 189.471 1179.99 187.052C1167.93 181.348 1153.22 178.452 1135.78 178.452C1116.37 178.452 1099.33 184.1 1084.6 195.381C1070.4 206.478 1063.17 223.171 1063.17 245.837C1063.17 267.56 1070.51 284.458 1085.09 296.777C1100.14 308.943 1117.01 315 1135.78 315C1158.46 315 1176.71 309.641 1190.7 299.094C1193.57 296.925 1197.3 296.835 1200.24 298.047C1203.19 299.264 1205.73 301.98 1205.73 305.752C1205.73 307.902 1207.48 309.663 1209.67 309.663ZM1083.82 298.32C1099.22 310.773 1116.54 317 1135.78 317C1158.78 317 1177.48 311.564 1191.9 300.691C1196.33 297.351 1203.73 300.223 1203.73 305.752C1203.73 309.016 1206.39 311.663 1209.67 311.663H1231.93C1247.5 311.663 1260.13 299.1 1260.13 283.602V172.894C1260.13 144.132 1251.4 123.376 1233.93 110.626C1216.46 97.8758 1193.96 91.5007 1166.42 91.5007C1135.62 91.5007 1108.82 99.3065 1086.01 114.918C1077.88 120.487 1076.16 131.41 1080.99 139.979C1087.64 151.773 1103.62 154.009 1115.64 147.714C1128.33 141.076 1142 137.757 1156.65 137.757C1170.86 137.757 1182.26 141.019 1190.85 147.542C1199.44 154.065 1203.73 162.812 1203.73 173.784C1203.73 183.624 1189.78 189.468 1180.85 185.244C1168.45 179.383 1153.43 176.452 1135.78 176.452C1115.94 176.452 1098.48 182.234 1083.38 193.798C1068.57 205.362 1061.17 222.708 1061.17 245.837C1061.17 268.075 1068.72 285.569 1083.82 298.32ZM1195.34 271.009C1185.96 277.569 1173.59 280.75 1158.43 280.75C1146.55 280.75 1136.49 277.847 1128.38 271.913C1120.15 265.891 1116.02 257.574 1116.02 247.171C1116.02 236.502 1120.13 228.031 1128.36 221.997C1136.47 215.76 1146.54 212.703 1158.43 212.703C1173.59 212.703 1185.96 215.883 1195.34 222.443C1203.27 227.981 1205.73 237.804 1205.73 246.726C1205.73 255.648 1203.27 265.471 1195.34 271.009ZM1318.07 43.0606V283.602C1318.07 297.986 1329.8 309.663 1344.28 309.663C1358.76 309.663 1370.48 297.986 1370.48 283.602V43.0606C1370.48 28.6771 1358.76 17 1344.28 17C1329.8 17 1318.07 28.6771 1318.07 43.0606ZM1430.4 43.0606V283.602C1430.4 297.986 1442.12 309.663 1456.6 309.663C1471.08 309.663 1482.8 297.986 1482.8 283.602V43.0605C1482.8 28.6771 1471.08 17 1456.6 17C1442.12 17 1430.4 28.6771 1430.4 43.0606ZM1637.99 134.423C1655.25 134.423 1668.61 139.439 1677.68 149.77C1681.29 153.753 1683.03 158.089 1683.15 162.396C1683.26 166.688 1681.74 170.771 1679.16 174.263C1674.01 181.212 1664.49 186.013 1653.96 186.013H1622.33C1611.85 186.013 1602.44 181.123 1597.4 174.128C1594.88 170.614 1593.43 166.52 1593.6 162.243C1593.77 157.952 1595.56 153.655 1599.21 149.748C1608.55 139.464 1621.57 134.423 1637.99 134.423ZM1788.21 124.899V283.602C1788.21 297.986 1799.93 309.663 1814.41 309.663C1828.89 309.663 1840.61 297.986 1840.61 283.602V198.61C1840.61 179.625 1846.02 158.806 1864.44 150.607C1875.3 145.775 1885.64 143.318 1895.46 143.318C1902.58 143.318 1909 137.728 1909 131.097V115.916C1909 109.715 1906.41 104.088 1902.43 100.524C1898.5 96.9944 1893.21 95.4757 1887.52 97.3556C1883.06 98.8297 1878.62 100.729 1874.18 103.057C1868.81 105.872 1863.88 109.019 1859.37 112.497C1855.85 115.212 1851.19 115.341 1847.49 113.849C1843.79 112.354 1840.61 109.02 1840.61 104.4C1840.61 101.338 1838.11 98.838 1835.01 98.838H1814.41C1799.93 98.838 1788.21 110.515 1788.21 124.899ZM82.9743 176.027C93.9007 165.702 107.928 160.54 125.055 160.54C134.842 160.54 143.472 162.224 150.946 165.591C163.356 171.183 179.018 173.792 189.415 165.032C199.201 156.788 200.757 141.92 190.361 134.453C172.926 121.929 150.271 115.667 122.398 115.667C89.3234 115.667 62.1552 125.065 40.8931 143.861C19.631 162.658 9 186.749 9 216.135C9 245.785 19.631 270.009 40.8931 288.805C62.1552 307.602 89.3234 317 122.398 317C150.203 317 172.815 310.697 190.234 298.09C200.728 290.495 199.06 275.448 189.103 267.167C178.77 258.573 163.457 260.982 151.284 266.716C143.624 270.323 134.882 272.127 125.055 272.127C107.928 272.127 93.9007 266.965 82.9743 256.64C72.3433 246.315 67.0277 232.813 67.0277 216.135C67.0277 199.456 72.3433 186.087 82.9743 176.027ZM245.779 148.42V284.247C245.779 298.59 257.468 310.235 271.907 310.235C286.347 310.235 298.035 298.59 298.035 284.247V213.207C298.035 195.004 303.927 175.368 321.886 168.212C332.704 163.902 342.997 161.717 352.747 161.717C359.886 161.717 366.251 156.103 366.251 149.411V137.755C366.251 132.197 363.947 127.154 360.371 123.884C356.824 120.64 352.033 119.133 346.836 120.534C341.69 121.921 336.562 123.813 331.449 126.213C325.571 128.974 320.214 132.09 315.371 135.559C312.004 137.971 307.699 138.009 304.304 136.548C300.896 135.081 298.035 131.92 298.035 127.619C298.035 124.764 295.706 122.432 292.812 122.432H271.907C257.468 122.432 245.779 134.077 245.779 148.42ZM502.624 315C536.482 315 563.418 305.461 583.643 286.555C603.915 267.341 614.021 243.907 614.021 216.135C614.021 188.361 603.915 165.064 583.648 146.116C563.422 127.207 536.485 117.667 502.624 117.667C468.766 117.667 441.83 127.205 421.605 146.111C401.634 165.054 391.669 188.353 391.669 216.135C391.669 243.914 401.632 267.348 421.608 286.559C441.833 305.463 468.768 315 502.624 315ZM420.233 288.011C399.857 268.421 389.669 244.462 389.669 216.135C389.669 187.808 399.857 163.981 420.233 144.656C440.904 125.33 468.368 115.667 502.624 115.667C536.879 115.667 564.343 125.33 585.014 144.656C605.685 163.981 616.021 187.808 616.021 216.135C616.021 244.462 605.685 268.421 585.014 288.011C564.343 307.337 536.879 317 502.624 317C468.368 317 440.904 307.337 420.233 288.011ZM1344.28 311.663C1359.85 311.663 1372.48 299.1 1372.48 283.602V43.0606C1372.48 27.5632 1359.85 15 1344.28 15C1328.7 15 1316.07 27.5632 1316.07 43.0606V283.602C1316.07 299.1 1328.7 311.663 1344.28 311.663ZM1194.2 269.37C1185.25 275.623 1173.33 278.75 1158.43 278.75C1146.88 278.75 1137.26 275.933 1129.56 270.299C1121.87 264.665 1118.02 256.956 1118.02 247.171C1118.02 237.089 1121.87 229.232 1129.56 223.598C1137.26 217.668 1146.88 214.703 1158.43 214.703C1173.33 214.703 1185.25 217.829 1194.2 224.082C1201.33 229.065 1203.73 238.057 1203.73 246.726C1203.73 255.395 1201.33 264.388 1194.2 269.37ZM1484.8 283.602C1484.8 299.1 1472.18 311.663 1456.6 311.663C1441.03 311.663 1428.4 299.1 1428.4 283.602V43.0606C1428.4 27.5631 1441.03 15 1456.6 15C1472.18 15 1484.8 27.5631 1484.8 43.0605V283.602ZM1676.18 151.1C1689.54 165.809 1673.88 184.013 1653.96 184.013H1622.33C1602.54 184.013 1587.2 165.51 1600.69 151.1C1609.57 141.315 1622 136.423 1637.99 136.423C1654.87 136.423 1667.6 141.315 1676.18 151.1ZM1842.61 283.602C1842.61 299.1 1829.98 311.663 1814.41 311.663C1798.83 311.663 1786.21 299.1 1786.21 283.602V124.899C1786.21 109.401 1798.83 96.838 1814.41 96.838H1835.01C1839.2 96.838 1842.61 100.224 1842.61 104.4C1842.61 111.574 1852.45 115.308 1858.15 110.913C1862.75 107.361 1867.79 104.152 1873.25 101.286C1877.78 98.9102 1882.33 96.9672 1886.89 95.4568C1899.75 91.204 1911 102.432 1911 115.916V131.097C1911 139.051 1903.45 145.318 1895.46 145.318C1885.98 145.318 1875.92 147.69 1865.26 152.434C1847.99 160.118 1842.61 179.793 1842.61 198.61V283.602ZM300.035 284.247C300.035 299.704 287.442 312.235 271.907 312.235C256.372 312.235 243.779 299.704 243.779 284.247V148.42C243.779 132.963 256.372 120.432 271.907 120.432H292.812C296.801 120.432 300.035 123.65 300.035 127.619C300.035 134.242 308.805 137.803 314.206 133.933C319.156 130.388 324.62 127.211 330.599 124.403C335.812 121.955 341.05 120.022 346.315 118.603C358.149 115.413 368.251 125.556 368.251 137.755V149.411C368.251 157.405 360.782 163.717 352.747 163.717C343.298 163.717 333.257 165.835 322.626 170.07C305.857 176.752 300.035 195.234 300.035 213.207V284.247Z" fill="url(#paint0_linear_353_217)"/>
</g>
<defs>
<filter id="filter0_f_353_217" x="-6" y="0" width="1932" height="332" filterUnits="userSpaceOnUse" color-interpolation-filters="sRGB">
<feFlood flood-opacity="0" result="BackgroundImageFix"/>
<feBlend mode="normal" in="SourceGraphic" in2="BackgroundImageFix" result="shape"/>
<feGaussianBlur stdDeviation="7.5" result="effect1_foregroundBlur_353_217"/>
</filter>
<linearGradient id="paint0_linear_353_217" x1="1648.66" y1="15" x2="51.5533" y2="328.181" gradientUnits="userSpaceOnUse">
<stop stop-color="#0D7CE4"/>
<stop offset="1" stop-color="#D50DE9"/>
</linearGradient>
</defs>
</svg>
