<svg width="43" height="43" viewBox="0 0 43 43" fill="none" xmlns="http://www.w3.org/2000/svg">
<path d="M13.1583 15.2483C13.1583 18.7039 10.357 21.5052 6.9014 21.5052C3.4458 21.5052 0.644485 18.7039 0.644485 15.2483C0.644485 11.7927 3.4458 8.99139 6.9014 8.99139C10.357 8.99139 13.1583 11.7927 13.1583 15.2483Z" fill="#327DFF"/>
<path d="M27.7578 6.74532C27.7578 10.2009 24.9565 13.0022 21.5009 13.0022C18.0453 13.0022 15.2439 10.2009 15.2439 6.74532C15.2439 3.28972 18.0453 0.488403 21.5009 0.488403C24.9565 0.488403 27.7578 3.28972 27.7578 6.74532Z" fill="#327DFF"/>
<path d="M42.5177 15.2483C42.5177 18.7039 39.7164 21.5052 36.2608 21.5052C32.8052 21.5052 30.0038 18.7039 30.0038 15.2483C30.0038 11.7927 32.8052 8.99139 36.2608 8.99139C39.7164 8.99139 42.5177 11.7927 42.5177 15.2483Z" fill="#327DFF"/>
<path fill-rule="evenodd" clip-rule="evenodd" d="M19.658 0.218576C16.9848 0.973978 15.0339 3.27459 14.6469 6.12802C14.521 7.05654 14.5142 7.06441 13.4044 7.59198C12.7904 7.88386 11.8561 8.42424 11.3277 8.79297L10.3672 9.46328L9.66652 9.11687C6.38707 7.49554 2.27683 8.97798 0.59822 12.3875C0.0552752 13.4906 -0.000904188 13.7593 1.07857e-05 15.2554C0.000742764 16.7236 0.0636928 17.0378 0.569124 18.0957C1.12305 19.2555 2.0479 20.3729 2.93506 20.9542C3.36272 21.2344 3.3748 21.3085 3.37242 23.6492C3.36894 27.1314 3.95562 29.6039 5.45581 32.4308C8.70324 38.5503 15.4072 42.3571 22.3244 42.0094C28.8641 41.6808 34.5009 38.104 37.6036 32.3144C39.0258 29.6604 39.6328 27.0375 39.6288 23.5617L39.626 21.2503L40.3081 20.7753C41.197 20.1558 41.9071 19.2454 42.51 17.9517C42.9231 17.0651 42.9975 16.6555 42.9999 15.2554C43.0027 13.7572 42.9474 13.4921 42.4037 12.3875C40.7242 8.97578 36.6149 7.49536 33.3312 9.11889L32.6263 9.46749L31.7757 8.85757C31.308 8.52214 30.3283 7.94864 29.5985 7.58301C28.4141 6.98938 28.2718 6.86183 28.2718 6.39282C28.2718 5.48114 27.6082 3.68998 26.9266 2.76129C25.3409 0.601218 22.1965 -0.498763 19.658 0.218576ZM23.5586 2.80264C25.7344 3.8448 26.6131 6.74947 25.4174 8.9465C23.5425 12.3914 18.6086 12.0175 17.1978 8.32359C16.8242 7.34549 16.8955 5.67694 17.3477 4.81247C18.5174 2.57683 21.2448 1.69424 23.5586 2.80264ZM15.9196 10.7506C16.6152 11.8133 17.917 12.7973 19.2629 13.2778L20.3115 13.6522L20.3585 26.6706C20.3971 37.3701 20.3624 39.6891 20.1633 39.6891C19.7552 39.6891 17.784 39.3146 17.1647 39.1196L16.5797 38.9351L16.5242 31.8551L16.4686 24.775L15.8722 23.5158C15.4475 22.6188 14.8573 21.8277 13.8212 20.7661L12.3666 19.2758L12.8292 18.3411C13.5702 16.8438 13.7603 15.2906 13.3875 13.7801C13.217 13.0891 12.873 12.2144 12.6228 11.8367C12.3728 11.4588 12.1682 11.1088 12.1682 11.0588C12.1682 11.0089 12.8063 10.5927 13.5864 10.1343C14.8487 9.39246 15.0248 9.33445 15.1877 9.60657C15.2883 9.77456 15.6177 10.2895 15.9196 10.7506ZM28.9781 9.86624C29.5458 10.1711 30.2053 10.5699 30.4435 10.7525L30.8769 11.0844L30.4007 11.8041C30.1389 12.1998 29.785 13.0891 29.6144 13.7801C29.2416 15.2906 29.4318 16.8438 30.1727 18.3411L30.6353 19.2758L29.1807 20.7661C28.1446 21.8277 27.5544 22.6188 27.1297 23.5158L26.5333 24.775L26.4777 31.8551L26.4222 38.9351L25.8372 39.1196C25.2189 39.3145 23.2471 39.6891 22.8398 39.6891C22.6429 39.6891 22.5989 37.3019 22.5989 26.6049C22.5989 18.3442 22.6639 13.5208 22.775 13.5208C22.872 13.5208 23.41 13.3492 23.9708 13.1393C25.2073 12.6767 26.9654 11.115 27.4437 10.0542C27.6278 9.64591 27.8161 9.31195 27.8622 9.31195C27.9083 9.31195 28.4105 9.56137 28.9781 9.86624ZM8.21263 10.9984C9.21782 11.2954 10.7337 12.8114 11.0307 13.8165C11.9421 16.9009 9.88428 19.799 6.7946 19.7823C4.16222 19.7683 2.28653 17.9244 2.28653 15.351C2.28653 12.1257 5.08104 10.0732 8.21263 10.9984ZM38.2728 11.2004C41.5142 12.8767 41.5376 17.6631 38.3123 19.2974C36.0847 20.4261 33.3222 19.5346 32.225 17.333C31.6374 16.1537 31.5829 14.5439 32.0923 13.4222C32.4863 12.5553 33.859 11.2852 34.7159 10.9949C35.5313 10.7186 37.5688 10.8365 38.2728 11.2004ZM12.2076 22.4564C14.2145 24.557 14.1812 24.3999 14.1812 31.7614C14.1812 35.1151 14.1384 37.8591 14.086 37.8591C13.8805 37.8591 12.3849 36.8464 11.3007 35.973C8.97425 34.0989 6.91959 30.8328 6.14552 27.7788C5.73049 26.1405 5.48711 23.6829 5.65272 22.8001L5.7702 22.1739L7.13387 22.0707C8.03348 22.0026 8.82658 21.8121 9.46376 21.5109C9.995 21.2597 10.5218 21.0472 10.6342 21.0388C10.7467 21.0306 11.4547 21.6685 12.2076 22.4564ZM33.4668 21.4954C34.1466 21.8066 34.9624 22.0023 35.8644 22.0705L37.2317 22.1739L37.3492 22.8001C37.4138 23.1445 37.4085 24.0933 37.3373 24.9086C36.9946 28.8386 35.3796 32.3779 32.7118 35.0456C31.6438 36.1137 29.78 37.5301 29.0989 37.7916C28.8535 37.8856 28.8208 37.1789 28.8208 31.7809C28.8208 24.3973 28.7869 24.5576 30.7943 22.4564C31.5472 21.6685 32.2246 21.0236 32.2998 21.0236C32.3749 21.0236 32.9001 21.2359 33.4668 21.4954Z" fill="#F2F7FC"/>
</svg>
