<svg width="44" height="42" viewBox="0 0 44 42" fill="none" xmlns="http://www.w3.org/2000/svg">
<path d="M17.1115 13.4444C17.1115 9.16663 20.8349 5.70366 22.872 3.66663C26.7831 5.62218 27.1499 12.4259 27.761 15.2777C34.1166 18.2111 35.241 23.6296 34.8336 26.8888C29.9448 28.7222 23.8338 26.2777 22.0004 26.2777C17.7226 27.5 9.90046 28.4778 9.16707 27.5C7.33376 25.0555 14.4633 15.2777 17.1115 13.4444Z" fill="#D3AFFF"/>
<path d="M11.5134 27.5605C11.3306 28.3077 11.788 29.0686 12.5492 29.1797C15.2004 29.5665 17.9167 29.2208 20.3991 28.1667C23.3104 26.9305 25.7441 24.7862 27.3371 22.0538C28.9302 19.3214 29.5973 16.1472 29.2389 13.0047C28.9333 10.3251 27.896 7.79094 26.2533 5.67435C25.7817 5.06666 24.8942 5.04348 24.334 5.57061C23.7737 6.09774 23.7545 6.97499 24.2125 7.59304C25.4507 9.26395 26.2336 11.2379 26.4712 13.3203C26.7615 15.866 26.2211 18.4373 24.9306 20.6508C23.6401 22.8642 21.6687 24.6012 19.3103 25.6026C17.3811 26.4218 15.2776 26.7129 13.2135 26.4585C12.4501 26.3644 11.6961 26.8133 11.5134 27.5605Z" fill="#1A195E"/>
<path d="M19.2319 2.20259C19.4965 1.48028 19.1264 0.673316 18.3823 0.478429C15.5403 -0.265868 12.5285 -0.141975 9.74114 0.851809C6.51481 2.00212 3.79284 4.24537 2.04732 7.19249C0.3018 10.1396 -0.357175 13.6047 0.184685 16.9869C0.652813 19.9088 1.9917 22.6095 4.01027 24.744C4.53882 25.3029 5.42433 25.2396 5.9306 24.6605C6.43687 24.0813 6.37061 23.2063 5.85464 22.6358C4.31961 20.9384 3.30042 18.8254 2.93526 16.5462C2.49632 13.8064 3.03013 10.9994 4.44413 8.61207C5.85812 6.22469 8.0631 4.40751 10.6767 3.47568C12.8508 2.7005 15.1937 2.57869 17.4199 3.10905C18.1682 3.28731 18.9674 2.9249 19.2319 2.20259Z" fill="#1A195E"/>
<path d="M30.4992 16.6928C30.9917 16.1019 31.8755 16.0179 32.417 16.5642C34.6024 18.7691 36.0409 21.6209 36.5046 24.7147C37.0375 28.2695 36.2463 31.8962 34.2815 34.9062C32.3166 37.9161 29.3147 40.0997 25.846 41.0423C22.3772 41.9848 18.6831 41.6208 15.4651 40.0192C12.2471 38.4176 9.7293 35.6901 8.38978 32.3544C7.05027 29.0188 6.98232 25.3074 8.19886 21.925C9.41539 18.5426 11.8317 15.7247 14.9889 14.0065C17.7367 12.511 20.8791 11.9391 23.9558 12.3531C24.7182 12.4557 25.184 13.2115 25.0096 13.9607C24.8352 14.7099 24.0863 15.1671 23.3218 15.0815C20.9138 14.8119 18.4683 15.2843 16.3205 16.4532C13.763 17.8452 11.8056 20.1278 10.8201 22.8678C9.83465 25.6078 9.88969 28.6143 10.9748 31.3164C12.0599 34.0184 14.0995 36.2279 16.7063 37.5253C19.3131 38.8227 22.3056 39.1176 25.1155 38.3541C27.9254 37.5905 30.3571 35.8217 31.9488 33.3834C33.5405 30.9451 34.1814 28.0073 33.7498 25.1276C33.3873 22.7094 32.2896 20.4736 30.6226 18.7151C30.0934 18.1568 30.0066 17.2837 30.4992 16.6928Z" fill="#1A195E"/>
<path d="M25.1181 27.2534C24.8739 27.9829 25.2663 28.7792 26.0156 28.9532C28.4638 29.5217 31.0254 29.4533 33.4525 28.743C36.3266 27.902 38.8745 26.2012 40.7535 23.8694C42.6326 21.5376 43.7528 18.6865 43.9636 15.6992C44.1744 12.7119 43.4657 9.7317 41.9328 7.15908C40.3999 4.58647 38.1162 2.54475 35.3886 1.30836C32.6611 0.0719618 29.6204 -0.29986 26.6753 0.242867C23.7302 0.785594 21.0218 2.21686 18.9141 4.34429C17.1343 6.14081 15.8549 8.36106 15.1897 10.7848C14.9861 11.5266 15.4996 12.2507 16.2574 12.383C17.0152 12.5154 17.7288 12.0048 17.9489 11.2677C18.5055 9.40344 19.5138 7.69706 20.8931 6.30483C22.6004 4.58146 24.7944 3.42204 27.1801 2.98239C29.5659 2.54275 32.029 2.84395 34.2385 3.84552C36.448 4.84708 38.298 6.50101 39.5398 8.585C40.7816 10.669 41.3556 13.0832 41.1849 15.5031C41.0141 17.923 40.1066 20.2326 38.5845 22.1215C37.0623 24.0105 34.9984 25.3882 32.6701 26.0695C30.7892 26.6199 28.8086 26.6945 26.9041 26.2967C26.1511 26.1394 25.3624 26.524 25.1181 27.2534Z" fill="#1A195E"/>
<path d="M16.3938 17.6272C15.644 17.7987 15.1688 18.5486 15.4107 19.2788C15.9791 20.9946 16.8599 22.5908 18.0085 23.9865C18.4973 24.5804 19.385 24.5782 19.93 24.0353C20.4749 23.4924 20.4691 22.6149 19.9936 22.0102C19.1984 20.9989 18.5727 19.865 18.141 18.653C17.8829 17.9284 17.1437 17.4556 16.3938 17.6272Z" fill="#1A195E"/>
</svg>
