<svg width="49" height="50" viewBox="0 0 49 50" fill="none" xmlns="http://www.w3.org/2000/svg">
<path fill-rule="evenodd" clip-rule="evenodd" d="M16.5789 30.5263C19.195 30.5263 21.3158 28.4056 21.3158 25.7895C21.3158 23.1734 19.195 21.0526 16.5789 21.0526C13.9629 21.0526 11.8421 23.1734 11.8421 25.7895C11.8421 28.4056 13.9629 30.5263 16.5789 30.5263ZM16.5789 33.1579C20.6484 33.1579 23.9474 29.8589 23.9474 25.7895C23.9474 21.72 20.6484 18.4211 16.5789 18.4211C12.5095 18.4211 9.21053 21.72 9.21053 25.7895C9.21053 29.8589 12.5095 33.1579 16.5789 33.1579Z" fill="#1A195E"/>
<path d="M10.6955 38.6841H7.89474V47.9417C7.89474 48.7151 8.52171 49.3421 9.29512 49.3421C10.0685 49.3421 10.6955 48.7151 10.6955 47.9417V38.6841Z" fill="#1A195E"/>
<path fill-rule="evenodd" clip-rule="evenodd" d="M21.6376 34.1517C22.2337 34.7478 22.9951 35.201 23.8381 35.201H25.6318C25.6828 35.3258 25.731 35.4516 25.7764 35.5785C25.3218 34.3092 24.5897 33.1429 23.6181 32.1713C22.6124 31.1656 21.3981 30.4165 20.0769 29.9661C17.3264 32.4468 14.7568 31.0763 13.8158 30.081C12.6177 30.5391 11.5169 31.2468 10.5924 32.1713C8.86513 33.8986 7.89474 36.2413 7.89474 38.6841H10.6955C10.6955 36.9841 11.3708 35.3538 12.5729 34.1517C13.7749 32.9496 15.4053 32.2743 17.1053 32.2743C18.8052 32.2743 20.4356 32.9496 21.6376 34.1517Z" fill="#1A195E"/>
<path fill-rule="evenodd" clip-rule="evenodd" d="M23.9933 32.5695C24.689 33.3531 25.2409 34.2441 25.6318 35.201H23.8381C23.3124 35.201 22.8185 35.0248 22.3766 34.7476C22.1098 34.5802 21.862 34.3761 21.6376 34.1517C21.2152 33.7292 20.7398 33.3719 20.2272 33.086C19.281 32.5584 18.2078 32.2743 17.1053 32.2743C15.901 32.2743 14.7318 32.6132 13.7249 33.2381C13.3104 33.4954 12.9234 33.8012 12.5729 34.1517C11.3708 35.3538 10.6955 36.9841 10.6955 38.6841V47.9417C10.6955 48.7151 10.0685 49.3421 9.29512 49.3421C8.52171 49.3421 7.89474 48.7151 7.89474 47.9417V38.6841C7.89474 38.2412 7.92664 37.8016 7.98917 37.3683C8.27151 35.412 9.17831 33.5854 10.5924 32.1713C11.5169 31.2468 12.6177 30.5391 13.8158 30.081C13.8566 30.1241 13.9004 30.168 13.9472 30.2122C14.2506 30.4988 14.6775 30.8005 15.196 31.0237C15.7431 31.2591 16.3921 31.407 17.1053 31.3572C17.5936 31.3232 18.1119 31.1964 18.6483 30.9416C19.0664 30.7429 19.4955 30.4664 19.9298 30.0953C19.9788 30.0534 20.0278 30.0104 20.0769 29.9661C21.3981 30.4165 22.6124 31.1656 23.6181 32.1713C23.7474 32.3006 23.8726 32.4334 23.9933 32.5695Z" fill="#1A195E"/>
<path d="M23.6842 16.4474L25 3.28947L45.3947 18.2018H35.3914L29.4534 22.3684L28.9136 18.7226L23.6842 16.4474Z" fill="#D3AFFF"/>
<path fill-rule="evenodd" clip-rule="evenodd" d="M28.9474 2.63158H42.1053C44.2853 2.63158 46.0526 4.39887 46.0526 6.57894V13.5965C46.0526 15.7766 44.2853 17.5439 42.1053 17.5439H38.4415C36.3933 17.5439 34.4035 18.2266 32.7868 19.484L30.9211 20.9352V20.5106C30.9211 18.8721 29.5928 17.5439 27.9543 17.5439C26.3227 17.5439 25 16.2212 25 14.5895V6.57895C25 4.39888 26.7673 2.63158 28.9474 2.63158ZM42.1053 0C45.7387 0 48.6842 2.94549 48.6842 6.57894V13.5965C48.6842 17.2299 45.7387 20.1754 42.1053 20.1754H38.4415C36.9785 20.1754 35.5572 20.6631 34.4024 21.5613L30.4131 24.6641C29.5488 25.3363 28.2895 24.7204 28.2895 23.6255V20.5106C28.2895 20.3255 28.1394 20.1754 27.9543 20.1754C24.8693 20.1754 22.3684 17.6746 22.3684 14.5895V6.57895C22.3684 2.94549 25.3139 0 28.9474 0H42.1053Z" fill="#1A195E"/>
<path fill-rule="evenodd" clip-rule="evenodd" d="M9.21053 9.21053H18.4211C20.3947 9.21053 20.3947 6.57895 18.4211 6.57895H9.21053C4.12369 6.57895 0 10.7026 0 15.7895V40.7895C0 45.8763 4.12369 50 9.21052 50H38.1579C43.2447 50 47.3684 45.8763 47.3684 40.7895C47.3684 40.7895 47.3684 26.9737 47.3684 25C47.3684 23.0263 44.7368 23.0263 44.7368 25C44.7368 26.9737 44.7368 40.7895 44.7368 40.7895C44.7368 44.4229 41.7913 47.3684 38.1579 47.3684H9.21052C5.57707 47.3684 2.63158 44.4229 2.63158 40.7895V15.7895C2.63158 14.8538 2.8269 13.9638 3.179 13.1579C4.19421 10.8343 6.51274 9.21053 9.21053 9.21053Z" fill="#1A195E"/>
<path d="M2.63158 15.7895L18.4211 15.7895C20.3947 15.7895 20.3947 13.1579 18.4211 13.1579H3.179C2.8269 13.9638 2.63158 14.8538 2.63158 15.7895Z" fill="#1A195E"/>
<path d="M28.9474 7.89474C28.9474 7.16805 29.5365 6.57895 30.2632 6.57895H40.7895C41.5162 6.57895 42.1053 7.16805 42.1053 7.89474C42.1053 8.62143 41.5162 9.21053 40.7895 9.21053H30.2632C29.5365 9.21053 28.9474 8.62143 28.9474 7.89474Z" fill="#1A195E"/>
<path d="M28.9474 13.1579C28.9474 12.4312 29.5365 11.8421 30.2632 11.8421H36.8421C37.5688 11.8421 38.1579 12.4312 38.1579 13.1579C38.1579 13.8846 37.5688 14.4737 36.8421 14.4737H30.2632C29.5365 14.4737 28.9474 13.8846 28.9474 13.1579Z" fill="#1A195E"/>
<path d="M17.1053 36.8421H34.2105L30.9211 48.6842H14.4737L17.1053 36.8421Z" fill="#D3AFFF"/>
<path fill-rule="evenodd" clip-rule="evenodd" d="M32.8874 38.1579H19.1153L16.6033 47.3684H30.7941L32.8874 38.1579ZM32.8947 50L35.4536 38.7411C35.8278 37.0944 34.5762 35.5263 32.8874 35.5263H19.1153C17.9285 35.5263 16.8886 36.3206 16.5764 37.4655L13.1579 50H32.8947Z" fill="#1A195E"/>
<path d="M26.3158 43.4211C26.3158 43.1608 26.2386 42.9064 26.094 42.69C25.9495 42.4737 25.744 42.305 25.5035 42.2054C25.2631 42.1058 24.9985 42.0798 24.7433 42.1305C24.4881 42.1813 24.2536 42.3066 24.0696 42.4906C23.8856 42.6747 23.7603 42.9091 23.7095 43.1644C23.6587 43.4196 23.6848 43.6842 23.7844 43.9246C23.884 44.165 24.0526 44.3705 24.269 44.5151C24.4854 44.6597 24.7398 44.7368 25 44.7368V43.4211H26.3158Z" fill="#1A195E"/>
</svg>
