<svg width="41" height="50" viewBox="0 0 41 50" fill="none" xmlns="http://www.w3.org/2000/svg">
<path d="M39.1892 45.946V27.0271C39.1892 27.0271 14.8649 29.0541 2.02704 46.6217L5.40542 48.6487H35.8108L39.1892 45.946Z" fill="#327DFF"/>
<path fill-rule="evenodd" clip-rule="evenodd" d="M33.7838 2.7027H6.75676C4.51776 2.7027 2.7027 4.51776 2.7027 6.75676V43.2432C2.7027 45.4822 4.51776 47.2973 6.75676 47.2973H33.7838C36.0228 47.2973 37.8378 45.4822 37.8378 43.2432V6.75676C37.8378 4.51777 36.0228 2.7027 33.7838 2.7027ZM6.75676 0C3.0251 0 0 3.0251 0 6.75676V43.2432C0 46.9749 3.0251 50 6.75676 50H33.7838C37.5154 50 40.5405 46.9749 40.5405 43.2432V6.75676C40.5405 3.0251 37.5154 0 33.7838 0H6.75676Z" fill="#D2EAFF"/>
<path d="M10.8108 17.5676C10.8108 12.7027 14.8648 10.1351 16.8919 9.45947H18.2432L15.5405 17.5676H10.8108Z" fill="#327DFF"/>
<path d="M29.1306 17.5672C29.0845 12.7026 25.0062 10.1735 22.9729 9.51711L21.6216 9.52992L24.401 17.612L29.1306 17.5672Z" fill="#327DFF"/>
<path d="M24.3243 18.2433L20.2703 27.0271L16.8919 18.2433L24.3243 18.2433Z" fill="#327DFF"/>
<path d="M31.0811 17.5676C31.0811 23.5383 26.2409 28.3785 20.2703 28.3785C14.2996 28.3785 9.45947 23.5383 9.45947 17.5676C9.45947 11.597 14.2996 6.75684 20.2703 6.75684C26.2409 6.75684 31.0811 11.597 31.0811 17.5676ZM12.1699 17.5676C12.1699 21.0937 14.4227 24.0935 17.5676 25.2062C18.4129 25.5053 19.3226 25.6681 20.2703 25.6681C21.218 25.6681 22.1277 25.5053 22.973 25.2062C26.1178 24.0935 28.3707 21.0937 28.3707 17.5676C28.3707 14.0416 26.1178 11.0418 22.973 9.92906C22.1277 9.62997 21.218 9.46722 20.2703 9.46722C19.3226 9.46722 18.4615 9.61435 17.5676 9.92906C14.244 11.1065 12.1699 14.0416 12.1699 17.5676Z" fill="#D2EAFF"/>
<path d="M20.2703 9.46722C23.6487 17.5676 23.6487 17.5676 20.2703 25.6681C21.218 25.6681 22.1277 25.5053 22.973 25.2062C25.6757 17.8036 25.6757 17.5676 22.973 9.92906C22.1277 9.62997 21.218 9.46722 20.2703 9.46722Z" fill="#D2EAFF"/>
<path d="M20.2703 9.46722C19.3226 9.46722 18.4615 9.61435 17.5676 9.92906C14.8649 17.5676 14.8649 17.5676 17.5676 25.2062C18.4129 25.5053 19.3226 25.6681 20.2703 25.6681C16.8919 17.5676 16.8919 17.5676 20.2703 9.46722Z" fill="#D2EAFF"/>
<path d="M10.8108 16.2163H29.7297V18.919H10.8108V16.2163Z" fill="#D2EAFF"/>
<path d="M10.8108 33.7837C10.8108 33.0374 11.4158 32.4324 12.1621 32.4324H28.3784C29.1247 32.4324 29.7297 33.0374 29.7297 33.7837C29.7297 34.5301 29.1247 35.1351 28.3784 35.1351H12.1621C11.4158 35.1351 10.8108 34.5301 10.8108 33.7837Z" fill="#D2EAFF"/>
<path d="M12.1622 39.1892C12.1622 38.4429 12.7672 37.8379 13.5135 37.8379H27.027C27.7734 37.8379 28.3784 38.4429 28.3784 39.1892C28.3784 39.9356 27.7734 40.5406 27.027 40.5406H13.5135C12.7672 40.5406 12.1622 39.9356 12.1622 39.1892Z" fill="#D2EAFF"/>
</svg>
