<svg width="49" height="50" viewBox="0 0 49 50" fill="none" xmlns="http://www.w3.org/2000/svg">
<path d="M26.5432 25.926V3.70381L25.9259 2.46924L2.46915 25.926L8.64199 27.1606L15.4321 32.0989L16.0494 27.7779L26.5432 25.926Z" fill="#D3AFFF"/>
<path fill-rule="evenodd" clip-rule="evenodd" d="M22.2222 2.46914H6.17284C4.12734 2.46914 2.46914 4.12734 2.46914 6.17284V22.2222C2.46914 24.2677 4.12734 25.9259 6.17284 25.9259H6.38082C8.42482 25.9259 10.4027 26.6504 11.963 27.9707L14.1975 29.8615V28.7654C14.1975 27.1972 15.4688 25.9259 17.037 25.9259H22.2222C24.2677 25.9259 25.9259 24.2677 25.9259 22.2222V6.17284C25.9259 4.12734 24.2677 2.46914 22.2222 2.46914ZM6.17284 0C2.76367 0 0 2.76367 0 6.17284V22.2222C0 25.6314 2.76367 28.3951 6.17284 28.3951H6.38082C7.84082 28.3951 9.25357 28.9126 10.3681 29.8556L14.6346 33.4658C15.437 34.1447 16.6667 33.5744 16.6667 32.5233V28.7654C16.6667 28.5609 16.8325 28.3951 17.037 28.3951H22.2222C25.6314 28.3951 28.3951 25.6314 28.3951 22.2222V6.17284C28.3951 2.76367 25.6314 0 22.2222 0H6.17284Z" fill="#1A195E"/>
<path fill-rule="evenodd" clip-rule="evenodd" d="M42.5926 47.5309H26.5432C24.4977 47.5309 22.8395 45.8727 22.8395 43.8272V30.8642H20.3704V43.8272C20.3704 47.2363 23.1341 50 26.5432 50H42.5926C46.0018 50 48.7654 47.2363 48.7654 43.8272V27.7778C48.7654 24.3686 46.0018 21.6049 42.5926 21.6049H42.3846C40.9246 21.6049 39.5119 21.0874 38.3973 20.1444L34.1308 16.5342C33.3284 15.8553 32.0988 16.4256 32.0988 17.4767V21.2346C32.0988 21.4391 31.933 21.6049 31.7284 21.6049H30.8642V24.0741H31.7284C33.2966 24.0741 34.5679 22.8028 34.5679 21.2346V20.1385L36.8024 22.0293C38.3628 23.3496 40.3406 24.0741 42.3846 24.0741H42.5926C44.6381 24.0741 46.2963 25.7323 46.2963 27.7778V43.8272C46.2963 45.8727 44.6381 47.5309 42.5926 47.5309Z" fill="#1A195E"/>
<path d="M32.0988 4.93818C32.0988 4.25635 32.6515 3.70361 33.3333 3.70361H45.679C46.3608 3.70361 46.9136 4.25635 46.9136 4.93818C46.9136 5.62001 46.3608 6.17275 45.679 6.17275H33.3333C32.6515 6.17275 32.0988 5.62001 32.0988 4.93818Z" fill="#1A195E"/>
<path d="M32.0988 11.111C32.0988 10.4292 32.6515 9.87646 33.3333 9.87646H40.7407C41.4226 9.87646 41.9753 10.4292 41.9753 11.111C41.9753 11.7929 41.4226 12.3456 40.7407 12.3456H33.3333C32.6515 12.3456 32.0988 11.7929 32.0988 11.111Z" fill="#1A195E"/>
<path d="M17.2839 39.5061C17.2839 38.8242 16.7312 38.2715 16.0494 38.2715H3.70369C3.02186 38.2715 2.46912 38.8242 2.46912 39.5061C2.46912 40.1879 3.02186 40.7406 3.70369 40.7406H16.0494C16.7312 40.7406 17.2839 40.1879 17.2839 39.5061Z" fill="#1A195E"/>
<path d="M17.2839 45.6789C17.2839 44.9971 16.7312 44.4443 16.0494 44.4443H8.64196C7.96013 44.4443 7.40739 44.9971 7.40739 45.6789C7.40739 46.3607 7.96013 46.9135 8.64196 46.9135H16.0494C16.7312 46.9135 17.2839 46.3607 17.2839 45.6789Z" fill="#1A195E"/>
<path fill-rule="evenodd" clip-rule="evenodd" d="M14.429 14.1976C15.6222 14.1976 16.5895 13.2303 16.5895 12.0371C16.5895 10.8439 15.6222 9.87661 14.429 9.87661C13.2358 9.87661 12.2685 10.8439 12.2685 12.0371C12.2685 13.2303 13.2358 14.1976 14.429 14.1976ZM14.429 16.6667C16.9859 16.6667 19.0586 14.594 19.0586 12.0371C19.0586 9.48023 16.9859 7.40747 14.429 7.40747C11.8721 7.40747 9.79938 9.48023 9.79938 12.0371C9.79938 14.594 11.8721 16.6667 14.429 16.6667Z" fill="#1A195E"/>
<path fill-rule="evenodd" clip-rule="evenodd" d="M11.191 18.9305C11.3626 18.4709 11.6316 18.0486 11.9852 17.695C12.6333 17.0469 13.5124 16.6828 14.429 16.6828C15.3456 16.6828 16.2247 17.0469 16.8729 17.695C17.2264 18.0486 17.4955 18.4709 17.667 18.9305C17.675 18.952 17.6829 18.9736 17.6905 18.9953C17.7436 19.147 17.815 19.2942 17.902 19.4298C18.1637 19.8371 18.5677 20.1388 19.0506 20.1388C19.6943 20.1388 20.2279 19.6119 20.0991 18.9812C20.0466 18.7238 19.9767 18.4709 19.8901 18.224C19.8493 18.1075 19.8047 17.9924 19.7565 17.8789C19.4689 17.2009 19.0519 16.5776 18.5211 16.0468C17.4358 14.9615 15.9638 14.3518 14.429 14.3518C12.8942 14.3518 11.4223 14.9615 10.337 16.0468C9.80616 16.5776 9.38911 17.2009 9.10152 17.8789C9.05335 17.9924 9.0088 18.1075 8.96796 18.224C8.88139 18.4709 8.81149 18.7238 8.75894 18.9812C8.63017 19.6119 9.16379 20.1388 9.80746 20.1388C10.2904 20.1388 10.6944 19.8371 10.956 19.4298C11.0431 19.2942 11.1144 19.147 11.1676 18.9953C11.1752 18.9736 11.183 18.952 11.191 18.9305Z" fill="#1A195E"/>
<path d="M38.8117 34.2593C38.8117 36.8161 36.739 38.8889 34.1821 38.8889C31.6252 38.8889 29.5525 36.8161 29.5525 34.2593C29.5525 31.7024 31.6252 29.6296 34.1821 29.6296C36.739 29.6296 38.8117 31.7024 38.8117 34.2593Z" fill="#D3AFFF"/>
<path fill-rule="evenodd" clip-rule="evenodd" d="M34.1821 36.4198C35.3753 36.4198 36.3426 35.4525 36.3426 34.2593C36.3426 33.0661 35.3753 32.0988 34.1821 32.0988C32.9889 32.0988 32.0216 33.0661 32.0216 34.2593C32.0216 35.4525 32.9889 36.4198 34.1821 36.4198ZM34.1821 38.8889C36.739 38.8889 38.8117 36.8161 38.8117 34.2593C38.8117 31.7024 36.739 29.6296 34.1821 29.6296C31.6252 29.6296 29.5525 31.7024 29.5525 34.2593C29.5525 36.8161 31.6252 38.8889 34.1821 38.8889Z" fill="#1A195E"/>
<path fill-rule="evenodd" clip-rule="evenodd" d="M30.9441 41.1527C31.1157 40.6931 31.3847 40.2708 31.7383 39.9172C32.3864 39.269 33.2655 38.9049 34.1821 38.9049C35.0987 38.9049 35.9778 39.269 36.6259 39.9172C36.9795 40.2708 37.2486 40.6931 37.4201 41.1527C37.4281 41.1742 37.4359 41.1958 37.4435 41.2175C37.4967 41.3692 37.568 41.5164 37.6551 41.652C37.9167 42.0592 38.3207 42.361 38.8037 42.361C39.4473 42.361 39.981 41.834 39.8522 41.2034C39.7997 40.946 39.7297 40.6931 39.6432 40.4462C39.6023 40.3297 39.5578 40.2146 39.5096 40.101C39.222 39.4231 38.805 38.7998 38.2742 38.269C37.1889 37.1837 35.7169 36.574 34.1821 36.574C32.6473 36.574 31.1753 37.1837 30.0901 38.269C29.5592 38.7998 29.1422 39.4231 28.8546 40.101C28.8064 40.2146 28.7619 40.3297 28.721 40.4462C28.6345 40.6931 28.5646 40.946 28.512 41.2034C28.3833 41.834 28.9169 42.361 29.5605 42.361C30.0435 42.361 30.4475 42.0592 30.7091 41.652C30.7962 41.5164 30.8675 41.3692 30.9207 41.2175C30.9283 41.1958 30.9361 41.1742 30.9441 41.1527Z" fill="#1A195E"/>
</svg>
