<svg width="51" height="50" viewBox="0 0 51 50" fill="none" xmlns="http://www.w3.org/2000/svg">
<path d="M7.04228 19.5776C7.04228 15.766 10.1322 12.6761 13.9438 12.6761H35.6498C39.297 12.6761 42.2537 15.6327 42.2537 19.28V20.028C42.2537 23.603 39.1204 26.369 35.573 25.9256L33.6248 25.6821C32.0727 25.488 30.8502 24.2655 30.6562 22.7134L30.5564 21.9151C30.3995 20.6601 29.3327 19.7184 28.0681 19.7184C26.8927 19.7184 25.875 20.5347 25.6201 21.6821L25.3377 22.9526C24.9312 24.7822 23.3437 26.1086 21.471 26.1835L14.2196 26.4736C10.3029 26.6302 7.04228 23.4974 7.04228 19.5776Z" fill="#327DFF"/>
<path fill-rule="evenodd" clip-rule="evenodd" d="M14.4325 34.8342L1.40846 37.3241L4.9296 43.6621H23.2395L14.4325 34.8342ZM33.0987 31.2657L41.5495 35.9156L42.2537 43.6621H49.296V28.1691L33.0987 31.2657Z" fill="#327DFF"/>
<path fill-rule="evenodd" clip-rule="evenodd" d="M8.45074 2.81691H42.2537C44.8788 2.81691 47.0846 4.61237 47.71 7.04228C47.8259 7.49245 47.8875 7.9644 47.8875 8.45074V9.85919V43.6621C48.357 44.3664 49.5777 45.3523 50.7044 43.6621V8.45074C50.7044 3.78352 46.9209 0 42.2537 0H8.45074C3.78352 0 0 3.78352 0 8.45074V36.6199C0 41.2871 3.78353 45.0706 8.45074 45.0706H15.493C17.1832 43.9438 16.1972 42.7232 15.493 42.2537H8.45074C5.33926 42.2537 2.81691 39.7313 2.81691 36.6199V9.85919V8.45074C2.81691 7.9644 2.87854 7.49245 2.9944 7.04228C3.61982 4.61237 5.8256 2.81691 8.45074 2.81691Z" fill="#D2EAFF"/>
<path d="M2.9944 7.04228C2.87854 7.49245 2.81691 7.9644 2.81691 8.45074V9.85919H47.8875V8.45074C47.8875 7.9644 47.8259 7.49245 47.71 7.04228H2.9944Z" fill="#D2EAFF"/>
<path fill-rule="evenodd" clip-rule="evenodd" d="M14.0846 15.493H36.6199C38.9535 15.493 40.8452 17.3848 40.8452 19.7184C40.8452 22.052 38.9535 23.9438 36.6199 23.9438C36.6199 23.9438 37.3241 23.9438 35.2114 23.9438C33.0987 23.9438 33.0987 26.7607 35.2114 26.7607C37.3241 26.7607 36.6199 26.7607 36.6199 26.7607C40.5092 26.7607 43.6621 23.6077 43.6621 19.7184C43.6621 15.829 40.5092 12.6761 36.6199 12.6761H14.0846C10.1952 12.6761 7.04228 15.829 7.04228 19.7184C7.04228 23.6077 10.1952 26.7607 14.0846 26.7607H21.1268C23.2395 26.7607 23.2395 23.9438 21.1268 23.9438H14.0846C11.751 23.9438 9.85919 22.052 9.85919 19.7184C9.85919 17.3848 11.751 15.493 14.0846 15.493Z" fill="#D2EAFF"/>
<path d="M12.6761 19.7184C12.6761 18.9405 13.3067 18.3099 14.0846 18.3099H21.1268C21.9047 18.3099 22.5353 18.9405 22.5353 19.7184C22.5353 20.4963 21.9047 21.1268 21.1268 21.1268H14.0846C13.3067 21.1268 12.6761 20.4963 12.6761 19.7184Z" fill="#D2EAFF"/>
<path d="M33.8029 19.7184C33.8029 18.9405 34.4335 18.3099 35.2114 18.3099H36.6199C37.3977 18.3099 38.0283 18.9405 38.0283 19.7184C38.0283 20.4963 37.3977 21.1268 36.6199 21.1268H35.2114C34.4335 21.1268 33.8029 20.4963 33.8029 19.7184Z" fill="#D2EAFF"/>
<path fill-rule="evenodd" clip-rule="evenodd" d="M27.0588 21.5977C26.8457 21.8937 26.7608 22.2912 26.7608 22.5353C26.7608 22.5353 26.7608 22.5353 26.7608 22.5353V33.5634C26.7608 34.7982 25.4532 35.4495 24.478 34.9304C21.6885 33.4458 19.1653 33.524 17.5744 34.0958C16.7582 34.3892 16.2768 34.7773 16.0743 35.0526C16.0697 35.0589 16.0653 35.065 16.0611 35.071C18.002 36.3669 20.0016 37.726 21.6259 39.1793C23.3738 40.7432 24.8827 42.583 25.325 44.7941C25.7361 46.8492 26.6358 47.1366 26.7611 47.1766C26.78 47.1827 26.7813 47.1831 26.7608 47.1831H38.7328C38.8013 47.1831 39.1902 47.1753 39.7028 45.8084C40.1742 44.5514 40.5076 42.7559 40.8647 40.6137C41.1834 38.7017 40.844 37.6712 40.4622 37.0815C40.0672 36.4716 39.49 36.1114 38.8493 35.7882L31.3113 32.6473C30.2616 32.2099 29.5779 31.1843 29.5779 30.0471V22.5353C29.5779 22.2912 29.4931 21.8937 29.2799 21.5977C29.1185 21.3735 28.8371 21.1268 28.1694 21.1268C27.5017 21.1268 27.2203 21.3735 27.0588 21.5977ZM24.7728 19.9517C25.4565 19.0022 26.5836 18.3099 28.1694 18.3099C29.7552 18.3099 30.8823 19.0022 31.566 19.9518C32.1979 20.8295 32.3948 21.8404 32.3948 22.5353V30.0471L40.0234 33.2257L40.0667 33.2474C40.8178 33.6229 41.9934 34.2636 42.8266 35.5504C43.6817 36.8707 44.0466 38.6572 43.6433 41.0768C43.2961 43.1597 42.9253 45.2375 42.3404 46.7974C41.7966 48.2474 40.777 50.0001 38.7328 50C38.7328 50 38.7329 50 38.7328 50H26.7608C25.1955 50 23.2168 48.6162 22.5628 45.3467C22.3008 44.0368 21.3448 42.7077 19.7476 41.2786C18.1642 39.8619 16.1419 38.5103 14.0076 37.0873L13.7733 36.9311L13.6171 36.6968C12.847 35.542 13.1485 34.2764 13.805 33.3838C14.436 32.5257 15.4574 31.8634 16.6216 31.445C18.564 30.7468 21.1636 30.6265 23.9439 31.62V22.5353C23.9439 21.8404 24.1409 20.8294 24.7728 19.9517Z" fill="#D2EAFF"/>
</svg>
