<svg width="154" height="57" viewBox="0 0 154 57" fill="none" xmlns="http://www.w3.org/2000/svg">
<path d="M145.293 56.2227C145.683 56.6133 146.317 56.6133 146.707 56.2227L153.071 49.8588C153.462 49.4682 153.462 48.8351 153.071 48.4446C152.681 48.054 152.047 48.054 151.657 48.4446L146 54.1014L140.343 48.4446C139.953 48.054 139.319 48.054 138.929 48.4446C138.538 48.8351 138.538 49.4682 138.929 49.8588L145.293 56.2227ZM100.289 19.5688L101.27 19.7649L100.289 19.5688ZM97.6505 32.7634L98.631 32.9595L97.6505 32.7634ZM0 28.0156H2.42972V26.0156H0V28.0156ZM7.28915 28.0156H12.1486V26.0156H7.28915V28.0156ZM17.008 28.0156H19.4377V26.0156H17.008V28.0156ZM19.4377 28.0156C20.7624 28.0156 22.0622 27.8396 23.3084 27.5042L22.7885 25.5729C21.7101 25.8632 20.585 26.0156 19.4377 26.0156V28.0156ZM30.0038 23.6187C30.9133 22.7032 31.711 21.6619 32.3682 20.5118L30.6318 19.5195C30.0626 20.5156 29.3721 21.4168 28.5849 22.2091L30.0038 23.6187ZM32.3682 20.5118C32.9374 19.5157 33.6279 18.6144 34.4151 17.8221L32.9962 16.4125C32.0867 17.3281 31.289 18.3694 30.6318 19.5195L32.3682 20.5118ZM40.2115 14.4583C41.2899 14.168 42.415 14.0156 43.5623 14.0156V12.0156C42.2376 12.0156 40.9378 12.1916 39.6916 12.5271L40.2115 14.4583ZM43.5623 14.0156H44.7967V12.0156H43.5623V14.0156ZM47.2656 14.0156H48.5V12.0156H47.2656V14.0156ZM48.5 14.0156C49.5366 14.0156 50.5484 14.1173 51.5265 14.311L51.915 12.3491C50.8097 12.1302 49.6677 12.0156 48.5 12.0156V14.0156ZM57.1118 16.6284C58.8023 17.7611 60.2581 19.2179 61.3899 20.9094L63.0521 19.7971C61.775 17.8885 60.1328 16.2451 58.2251 14.9669L57.1118 16.6284ZM63.7049 26.4963C63.8984 27.4745 64 28.4864 64 29.523H66C66 28.3554 65.8855 27.2135 65.6669 26.1082L63.7049 26.4963ZM64 29.523C64 30.6896 64.1144 31.8305 64.3329 32.9349L66.2948 32.5468C66.1015 31.5695 66 30.5586 66 29.523H64ZM66.9454 39.2407C68.2215 41.1477 69.8623 42.7897 71.7683 44.0668L72.8816 42.4053C71.1927 41.2737 69.7384 39.8183 68.6076 38.1284L66.9454 39.2407ZM78.0732 46.6824C79.1775 46.9011 80.3185 47.0156 81.4853 47.0156V45.0156C80.4497 45.0156 79.4388 44.914 78.4617 44.7205L78.0732 46.6824ZM81.4853 47.0156C82.5004 47.0156 83.4987 46.9283 84.4724 46.76L84.1317 44.7892C83.2699 44.9382 82.3855 45.0156 81.4853 45.0156V47.0156ZM90.0985 44.7479C91.843 43.7595 93.4068 42.4775 94.7182 40.9607L93.2052 39.6527C92.0435 40.9963 90.658 42.1322 89.1126 43.0078L90.0985 44.7479ZM97.7946 35.8384C98.1505 34.9167 98.432 33.9548 98.631 32.9595L96.6699 32.5672C96.4933 33.45 96.244 34.302 95.9289 35.1179L97.7946 35.8384ZM98.631 32.9595L99.2908 29.6608L97.3296 29.2686L96.6699 32.5672L98.631 32.9595ZM100.61 23.0635L101.27 19.7649L99.3088 19.3727L98.6491 22.6713L100.61 23.0635ZM101.27 19.7649C101.437 18.9296 101.65 18.1135 101.905 17.3189L100.002 16.7064C99.7228 17.573 99.4908 18.4626 99.3088 19.3727L101.27 19.7649ZM103.989 12.7278C104.862 11.2742 105.896 9.93438 107.063 8.73032L105.628 7.33803C104.355 8.65086 103.227 10.112 102.275 11.6979L103.989 12.7278ZM110.964 5.53256C112.374 4.62381 113.89 3.87299 115.487 3.30178L114.813 1.41866C113.071 2.04182 111.417 2.86074 109.88 3.85158L110.964 5.53256ZM120.397 2.15908C121.227 2.06426 122.069 2.01562 122.921 2.01562V0.015625C121.993 0.015625 121.075 0.0686147 120.17 0.172028L120.397 2.15908ZM122.921 2.01562C123.899 2.01562 124.862 2.07919 125.806 2.2023L126.064 0.219099C125.035 0.0848296 123.986 0.015625 122.921 0.015625V2.01562ZM131.372 3.69063C133.167 4.43476 134.842 5.40898 136.362 6.57676L137.58 4.99092C135.924 3.71787 134.096 2.65519 132.138 1.84318L131.372 3.69063ZM140.439 10.654C141.607 12.1736 142.581 13.8491 143.325 15.6436L145.172 14.8775C144.36 12.9193 143.298 11.092 142.025 9.43533L140.439 10.654ZM144.813 21.21C144.936 22.1538 145 23.1167 145 24.095H147C147 23.03 146.931 21.9807 146.797 20.9513L144.813 21.21ZM145 24.095V26.7134H147V24.095H145ZM145 31.9502V37.1869H147V31.9502H145ZM145 42.4237V47.6605H147V42.4237H145ZM145 52.8972V55.5156H147V52.8972H145Z" fill="#A761FF"/>
</svg>
